<svg width="24" height="24" viewBox="0 0 24 24" fill="none" xmlns="http://www.w3.org/2000/svg">
<ellipse cx="12.0013" cy="11.9996" rx="9.61457" ry="9.61457" fill="#0D75FC"/>
<path d="M11.9953 2.00098C6.47955 2.00098 1.99219 6.48834 1.99219 12.0041C1.99219 17.5162 6.47955 22.001 11.9953 22.001C17.511 22.001 21.9984 17.5164 21.9984 12.0041C21.9984 6.48834 17.511 2.00098 11.9953 2.00098ZM11.9953 20.2982C7.41831 20.2982 3.69477 16.5774 3.69477 12.0038C3.69477 7.42689 7.41831 3.70334 11.9953 3.70334C16.5722 3.70334 20.2958 7.4271 20.2958 12.0041C20.2958 16.5774 16.5722 20.2982 11.9953 20.2982Z" fill="#0D75FC"/>
<path d="M16.2916 11.152H12.8473V7.7081C12.8473 7.23798 12.4661 6.85681 11.996 6.85681C11.5259 6.85681 11.1447 7.23798 11.1447 7.7081V11.152H7.70676C7.23663 11.152 6.85547 11.5332 6.85547 12.0033C6.85547 12.4734 7.23663 12.8546 7.70676 12.8546H11.1447V16.2925C11.1447 16.7626 11.5259 17.1438 11.996 17.1438C12.4661 17.1438 12.8473 16.7626 12.8473 16.2925V12.8546H16.2916C16.7617 12.8546 17.1429 12.4734 17.1429 12.0033C17.1429 11.5332 16.7617 11.152 16.2916 11.152Z" fill="white"/>
</svg>
