<svg width="160" height="89" viewBox="0 0 160 89" fill="none" xmlns="http://www.w3.org/2000/svg">
<path d="M150.42 0.609863H9.3004C4.52314 0.609863 0.650391 4.48259 0.650391 9.25986V80.0299C0.650391 84.8071 4.52314 88.6799 9.3004 88.6799H150.42C155.198 88.6799 159.07 84.8071 159.07 80.0299V9.25986C159.07 4.48259 155.198 0.609863 150.42 0.609863Z" fill="white"/>
<path d="M150.42 88.6799C150.42 88.6799 150.84 88.6799 151.65 88.5599C152.45 88.4399 153.66 88.1498 155 87.2999C156.33 86.4698 157.79 84.9899 158.54 82.7899C158.93 81.6899 159.03 80.4498 158.99 79.1098C158.99 77.7699 158.99 76.3399 158.98 74.8298C158.96 62.7198 158.93 45.2199 158.9 23.5999C158.9 20.8999 158.9 18.1299 158.9 15.2999C158.9 13.8799 158.9 12.4499 158.9 11.0099C158.9 9.55986 158.96 8.10986 158.51 6.72986C157.65 3.97986 155.25 1.66986 152.3 1.03986C151.56 0.879856 150.82 0.819865 150.05 0.829865C149.28 0.829865 148.5 0.829865 147.72 0.829865C146.16 0.829865 144.58 0.829865 142.99 0.829865C130.27 0.829865 116.68 0.849869 102.38 0.849869C73.7802 0.849869 42.3402 0.859858 9.34021 0.869858C7.33021 0.869858 5.35022 1.60986 3.85022 2.91986C2.33022 4.20986 1.32021 6.05987 1.04021 8.01987C0.890208 8.98987 0.950217 10.0099 0.940217 11.0299C0.940217 12.0499 0.940217 13.0599 0.940217 14.0699C0.940217 16.0899 0.940217 18.1099 0.940217 20.1199C0.940217 28.1599 0.940217 36.0798 0.940217 43.8598C0.940217 51.6398 0.940217 59.2899 0.940217 66.7699C0.940217 70.5098 0.940217 74.2199 0.940217 77.8799C0.950217 78.7899 0.910216 79.7299 0.970216 80.5999C1.04022 81.4799 1.21022 82.3599 1.55022 83.1699C2.21022 84.7999 3.38022 86.2099 4.85022 87.1399C6.32022 88.0799 8.05021 88.5199 9.79021 88.4599C11.5602 88.4599 13.3102 88.4599 15.0502 88.4599C18.5302 88.4599 21.9702 88.4599 25.3602 88.4599C32.1302 88.4599 38.7102 88.4599 45.0702 88.4699C57.7902 88.4799 69.6302 88.4899 80.4502 88.4999C102.07 88.5299 119.57 88.5599 131.68 88.5798C137.72 88.5998 142.41 88.6199 145.61 88.6299C147.19 88.6399 148.41 88.6499 149.23 88.6599C150.05 88.6599 150.46 88.6899 150.46 88.6899C150.46 88.6899 150.04 88.7099 149.23 88.7199C148.4 88.7199 147.19 88.7299 145.61 88.7499C142.42 88.7599 137.72 88.7799 131.68 88.7999C119.57 88.8198 102.07 88.8499 80.4502 88.8799C69.6302 88.8799 57.7902 88.8999 45.0702 88.9099C38.7102 88.9099 32.1302 88.9099 25.3602 88.9199C21.9702 88.9199 18.5402 88.9199 15.0502 88.9199C13.3102 88.9199 11.5502 88.9199 9.79021 88.9199C8.00021 88.9899 6.13021 88.5299 4.59021 87.5299C3.03021 86.5499 1.79022 85.0699 1.10022 83.3399C0.740221 82.4799 0.560211 81.5499 0.480211 80.6199C0.420211 79.6799 0.460212 78.7899 0.450212 77.8699C0.450212 74.2099 0.450212 70.4999 0.450212 66.7599C0.450212 59.2699 0.450212 51.6299 0.450212 43.8499C0.450212 36.0699 0.450212 28.1498 0.450212 20.1098C0.450212 18.0998 0.450212 16.0799 0.450212 14.0599C0.450212 13.0499 0.450212 12.0299 0.450212 11.0199C0.460212 10.0099 0.400212 8.98987 0.560212 7.93987C0.860212 5.85987 1.93021 3.88986 3.54021 2.52986C5.14021 1.13986 7.24021 0.359863 9.37021 0.359863C42.3702 0.359863 73.8102 0.369868 102.41 0.379868C116.71 0.379868 130.3 0.399857 143.02 0.399857C144.61 0.399857 146.19 0.399857 147.75 0.399857C148.53 0.399857 149.31 0.399857 150.08 0.399857C150.85 0.399857 151.66 0.449858 152.42 0.619858C155.52 1.28986 158.02 3.70987 158.92 6.59987C159.4 8.04987 159.32 9.57986 159.32 10.9999C159.32 12.4499 159.32 13.8799 159.32 15.2899C159.32 18.1199 159.32 20.8899 159.32 23.5899C159.29 45.2099 159.26 62.7199 159.24 74.8199C159.24 76.3299 159.24 77.7599 159.23 79.0999C159.27 80.4299 159.15 81.7299 158.75 82.8298C157.98 85.0698 156.48 86.5499 155.12 87.3799C153.75 88.2199 152.53 88.4999 151.72 88.5999C151.32 88.6699 151 88.6599 150.8 88.6699C150.59 88.6699 150.49 88.6699 150.49 88.6699L150.42 88.6799Z" fill="#263238"/>
<path d="M41.0798 15.4897H17.5498V19.9297H41.0798V15.4897Z" fill="#FF725E"/>
<path d="M41.0798 69.8799H17.5498V74.3199H41.0798V69.8799Z" fill="#FF725E"/>
<path d="M58.0598 26.5H17.5498V30.94H58.0598V26.5Z" fill="#E0E0E0"/>
<path d="M83.1502 26.5H65.2402V30.94H83.1502V26.5Z" fill="#FF725E"/>
<path d="M136.5 26.5H124.73V30.94H136.5V26.5Z" fill="#263238"/>
<path d="M120.62 26.5H89.4404V30.94H120.62V26.5Z" fill="#455A64"/>
<path d="M95.99 41.4399L136.5 41.4399V36.9999L95.99 36.9999V41.4399Z" fill="#E0E0E0"/>
<path d="M70.9005 41.4399H88.8105V36.9999H70.9005V41.4399Z" fill="#455A64"/>
<path d="M17.5503 41.4399H29.3203V36.9999H17.5503V41.4399Z" fill="#263238"/>
<path d="M33.4303 41.4399L64.6104 41.4399V36.9999H33.4303V41.4399Z" fill="#FF725E"/>
<path d="M58.0598 47.77H17.5498V52.21H58.0598V47.77Z" fill="#E0E0E0"/>
<path d="M83.1502 47.77H65.2402V52.21H83.1502V47.77Z" fill="#263238"/>
<path d="M136.5 47.77H124.73V52.21H136.5V47.77Z" fill="#263238"/>
<path d="M67.81 58.75H56.04V63.19H67.81V58.75Z" fill="#FF725E"/>
<path d="M120.62 47.77H89.4404V52.21H120.62V47.77Z" fill="#455A64"/>
<path d="M47.8802 58.75H16.7002V63.19H47.8802V58.75Z" fill="#455A64"/>
</svg>
