<svg width="223" height="220" viewBox="0 0 223 220" fill="none" xmlns="http://www.w3.org/2000/svg">
<path d="M74.2118 181.709C72.9183 181.709 71.6268 181.639 70.3374 181.495C55.3366 179.821 42.2922 168.775 36.1381 154.992C29.9836 141.21 30.1543 125.162 34.4172 110.683C37.4156 100.499 43.6777 89.8278 54.0607 87.6093C60.9458 86.1393 69.4867 88.28 74.0946 82.9565C78.4117 77.9684 75.7844 70.3942 75.708 63.7966C75.6185 56.091 79.7006 48.4633 86.1605 44.2624C88.7798 42.5604 94.3387 40.2158 98.8548 40.2158C100.949 40.2158 102.818 40.7188 104.066 42.0252C105.63 43.6602 105.349 46.4809 105.503 48.5545C105.754 51.9358 106.342 55.1427 108.678 57.7488C111.493 60.8914 115.605 62.513 119.433 64.0326C132.389 69.171 145.344 74.308 158.299 79.4464C166.838 82.8344 175.475 86.2734 182.937 91.6331C190.397 96.9928 196.681 104.558 198.613 113.539C200.545 122.521 197.318 132.897 189.516 137.747C185.371 140.322 180.576 141.12 175.648 141.12C171.91 141.12 168.096 140.661 164.426 140.171C157.995 139.312 151.498 138.447 145.029 138.447C142.347 138.447 139.672 138.596 137.007 138.955C127.911 140.181 118.803 144.184 113.385 151.592C110.655 155.324 108.987 159.717 106.587 163.669C99.8823 174.714 87.0941 181.709 74.2118 181.709Z" fill="#F8FBFE"/>
<path d="M0.331787 39.8315V113.576C0.331787 119.375 5.03214 124.075 10.8302 124.075H89.0202C94.8184 124.075 99.5189 119.375 99.5189 113.576V39.8315C99.5189 34.0327 94.8184 29.3331 89.0202 29.3331H10.8302C5.03214 29.3331 0.331787 34.0327 0.331787 39.8315Z" fill="white"/>
<path d="M0.33728 39.5713C0.475526 33.8934 5.11809 29.3328 10.8292 29.3328H89.0191C94.7299 29.3328 99.3726 33.8934 99.511 39.5713H0.33728Z" fill="#FFC25E"/>
<path d="M47.6256 84.8022L47.6598 84.9788C48.2032 87.9591 51.0527 89.979 54.1037 89.432C56.5973 88.969 58.3264 86.9377 58.5996 84.6972C58.5826 84.6924 58.5655 84.6886 58.549 84.6848C54.3145 83.5479 50.4964 84.0319 47.8488 84.743C47.7734 84.764 47.6975 84.785 47.6256 84.8022Z" fill="white"/>
<path d="M56.5018 71.8929C56.5163 71.937 56.5313 71.977 56.5493 72.0181C56.5163 71.9883 56.4868 71.9586 56.4574 71.9257C56.4724 71.9144 56.4868 71.9042 56.5018 71.8929Z" fill="#73ABFF"/>
<path d="M87.2715 34.9933C87.2715 35.7638 87.8944 36.3867 88.6647 36.3867C89.4344 36.3867 90.0605 35.7638 90.0605 34.9933C90.0605 34.224 89.4344 33.5973 88.6647 33.5973C87.8944 33.5973 87.2715 34.224 87.2715 34.9933Z" fill="white"/>
<path d="M91.46 34.9933C91.46 35.7638 92.0836 36.3867 92.8533 36.3867C93.623 36.3867 94.2495 35.7638 94.2495 34.9933C94.2495 34.224 93.623 33.5973 92.8533 33.5973C92.0836 33.5973 91.46 34.224 91.46 34.9933Z" fill="white"/>
<path d="M82.9531 34.9933C82.9531 35.7638 83.5761 36.3867 84.3458 36.3867C85.1161 36.3867 85.7422 35.7638 85.7422 34.9933C85.7422 34.224 85.1161 33.5973 84.3458 33.5973C83.5761 33.5973 82.9531 34.224 82.9531 34.9933Z" fill="white"/>
<path d="M15.0949 35.4141H7.73843C7.61844 35.4141 7.52136 35.3176 7.52136 35.1974C7.52136 35.0784 7.61844 34.9807 7.73843 34.9807H15.0949C15.2149 34.9807 15.3119 35.0784 15.3119 35.1974C15.3119 35.3176 15.2149 35.4141 15.0949 35.4141Z" fill="white"/>
<path d="M70.6166 110.125C70.6166 111.392 71.6388 112.414 72.8995 112.414C74.1602 112.414 75.1825 111.392 75.1825 110.125C75.1825 108.866 74.1602 107.843 72.8995 107.843C71.6388 107.843 70.6166 108.866 70.6166 110.125Z" fill="white"/>
<path d="M63.1937 110.126C63.1937 111.392 64.216 112.415 65.4767 112.415C66.7382 112.415 67.7604 111.392 67.7604 110.126C67.7604 108.866 66.7382 107.843 65.4767 107.843C64.216 107.843 63.1937 108.866 63.1937 110.126Z" fill="white"/>
<path d="M55.7709 110.126C55.7709 111.392 56.7938 112.415 58.0542 112.415C59.3147 112.415 60.3376 111.392 60.3376 110.126C60.3376 108.866 59.3147 107.843 58.0542 107.843C56.7938 107.843 55.7709 108.866 55.7709 110.126Z" fill="white"/>
<path d="M48.3489 110.125C48.3489 111.392 49.3717 112.414 50.6321 112.414C51.8927 112.414 52.9155 111.392 52.9155 110.125C52.9155 108.866 51.8927 107.843 50.6321 107.843C49.3717 107.843 48.3489 108.866 48.3489 110.125Z" fill="white"/>
<path d="M40.927 110.125C40.927 111.392 41.9493 112.414 43.2098 112.414C44.4708 112.414 45.4931 111.392 45.4931 110.125C45.4931 108.866 44.4708 107.843 43.2098 107.843C41.9493 107.843 40.927 108.866 40.927 110.125Z" fill="white"/>
<path d="M33.5032 110.125C33.5032 111.392 34.5259 112.414 35.7864 112.414C37.0468 112.414 38.0697 111.392 38.0697 110.125C38.0697 108.866 37.0468 107.843 35.7864 107.843C34.5259 107.843 33.5032 108.866 33.5032 110.125Z" fill="white"/>
<path d="M26.0785 110.125C26.0785 111.392 27.1011 112.414 28.3618 112.414C29.6224 112.414 30.645 111.392 30.645 110.125C30.645 108.866 29.6224 107.843 28.3618 107.843C27.1011 107.843 26.0785 108.866 26.0785 110.125Z" fill="white"/>
<path d="M203.57 187.59C203.585 188.679 204.294 189.466 204.316 190.607C204.328 191.096 204.294 191.597 204.306 192.086C204.313 192.429 204.343 192.767 204.424 193.098C205.002 195.47 208.357 197.217 211.028 193.536C215.945 186.799 217.345 185.002 218.586 182.597C219.604 180.621 220.325 178.447 220.359 176.225C220.381 174.816 219.983 173.201 218.722 172.568C218.32 172.365 217.875 172.295 217.433 172.328C215.755 172.446 214.664 173.804 213.931 175.312C213.132 176.955 212.19 180.737 207.728 182.52C204.977 183.62 203.51 183.786 203.57 187.59Z" fill="#DBEDFF"/>
<path d="M204.307 192.087C204.314 192.43 204.343 192.768 204.425 193.099C205.003 195.471 208.358 197.218 211.029 193.537C215.946 186.8 217.346 185.003 218.587 182.598C219.605 180.622 220.326 178.448 220.36 176.226C220.382 174.817 219.984 173.202 218.723 172.569C218.32 172.366 217.876 172.296 217.434 172.329V172.701C217.405 174.743 217.611 176.789 217.434 178.827C217.169 181.818 216.054 184.732 214.255 187.135C213.365 188.327 212.276 189.416 210.922 190.027C209.638 190.608 208.207 190.726 206.835 191.038C205.944 191.245 205.038 191.561 204.307 192.087Z" fill="#C2E0FF"/>
<path d="M177.553 151.336C179.421 153.937 181.139 157.061 180.452 160.184C179.879 162.786 177.736 164.824 177.143 167.418C176.198 171.542 179.643 175.641 183.661 176.966C188.771 178.651 193.922 177.234 198.882 175.865C202.888 174.755 206.655 174.143 210.125 172.499C211.84 171.69 213.481 170.626 215.045 169.125C219.736 164.625 222.263 157.966 221.737 151.487C221.505 148.62 220.644 145.692 218.661 143.617C216.81 141.678 214.099 140.588 212.646 138.333C210.979 135.739 211.443 132.303 212.546 129.426C213.653 126.548 215.334 123.877 216.027 120.871C216.715 117.866 216.104 114.238 213.513 112.563C211.56 111.301 208.833 111.36 207.241 109.668C205.85 108.185 205.843 105.864 206.365 103.899C206.888 101.934 207.848 100.083 208.117 98.071C208.782 93.1075 204.662 88.2256 199.724 87.3866C196.523 86.8425 193.238 87.8127 190.585 89.7148C189.146 90.7411 187.898 92.0444 186.949 93.5305C184.261 97.7505 183.821 103.152 185.014 108.016C185.945 111.817 187.822 115.551 187.317 119.433C186.71 124.113 182.859 127.582 179.444 130.842C176.029 134.102 172.578 138.245 173.142 142.932C173.523 146.111 175.688 148.735 177.553 151.336Z" fill="#DBEDFF"/>
<path d="M177.553 151.335C179.422 153.937 181.141 157.061 180.452 160.184C179.879 162.786 177.737 164.824 177.145 167.418C176.199 171.542 179.643 175.641 183.661 176.966C188.771 178.651 193.923 177.234 198.881 175.865C202.889 174.755 206.656 174.143 210.126 172.499C210.423 170.961 210.427 169.405 209.99 167.863C208.378 162.215 201.821 159.82 197.774 155.56C193.746 151.321 192.297 145.162 192.487 139.315C192.679 133.469 194.327 127.788 195.747 122.115C197.164 116.441 198.367 110.58 197.646 104.778C197.201 101.202 195.991 97.7327 194.168 94.6275C193.183 92.9452 191.983 91.2125 190.585 89.7152C189.147 90.7414 187.899 92.0438 186.95 93.5298C184.261 97.7509 183.822 103.152 185.015 108.016C185.946 111.817 187.822 115.551 187.317 119.433C186.71 124.113 182.858 127.582 179.444 130.842C176.029 134.102 172.579 138.244 173.141 142.932C173.524 146.111 175.687 148.734 177.553 151.335Z" fill="#C2E0FF"/>
<path d="M129.208 51.8918C128.73 54.5013 130.459 57.004 133.069 57.4815C135.439 57.914 137.718 56.5278 138.471 54.3094C139.346 54.9897 140.394 55.4757 141.564 55.6895L141.573 55.6907C141.551 55.766 141.535 55.8486 141.521 55.9252C140.992 58.8154 142.904 61.5817 145.798 62.1114C148.687 62.6399 151.455 60.7289 151.983 57.8386C152.422 55.4441 151.19 53.1395 149.115 52.1153C149.489 51.4544 149.758 50.717 149.901 49.9309C150.613 46.0396 148.035 42.3051 144.142 41.5944C141.555 41.1206 139.037 42.0998 137.436 43.9537C136.9 43.509 136.243 43.1883 135.508 43.0547C133.238 42.6392 131.065 44.1396 130.651 46.409C130.486 47.3128 130.622 48.1949 130.988 48.9639C130.086 49.6661 129.429 50.6829 129.208 51.8918Z" fill="#FFC25E"/>
<path d="M137.305 56.0829C137.288 56.1335 137.271 56.1795 137.25 56.2256C137.288 56.193 137.322 56.1593 137.355 56.1211C137.338 56.1088 137.322 56.0953 137.305 56.0829Z" fill="#73ABFF"/>
<path d="M130.807 45.8205C131.734 44.9908 133.022 44.5826 134.344 44.8268C135.076 44.9616 135.732 45.2811 136.272 45.7233C137.87 43.8719 140.388 42.8902 142.976 43.3665C146.865 44.0772 149.446 47.8105 148.735 51.7005C148.592 52.4878 148.322 53.224 147.948 53.8849C150.023 54.9115 151.256 57.2149 150.818 59.6094C150.75 59.9678 150.654 60.308 150.523 60.6323C151.256 59.8961 151.782 58.9363 151.985 57.8369C152.422 55.4424 151.189 53.1402 149.114 52.1172C149.488 51.4563 149.758 50.7201 149.9 49.9329C150.612 46.0392 148.032 42.3047 144.143 41.594C141.554 41.1226 139.037 42.0993 137.438 43.9545C136.898 43.5098 136.242 43.1891 135.51 43.0542C133.438 42.6764 131.456 43.8877 130.807 45.8205Z" fill="#FFAE29"/>
<path d="M103.168 202.034L100.862 208.924L100.71 209.375L89.2947 205.549L90.5451 201.815L91.8491 197.921L103.168 202.034Z" fill="#FCBBA4"/>
<path d="M103.168 202.033L100.862 208.924C99.6708 208.499 98.5929 207.741 97.8015 206.752C97.1952 205.998 96.7578 205.127 96.1977 204.336C95.6421 203.544 94.9265 202.808 94.0004 202.518C93.1501 202.252 92.2196 202.396 91.3567 202.164C91.0711 202.088 90.7973 201.97 90.5452 201.814L91.8491 197.921L103.168 202.033Z" fill="#F2A07C"/>
<path d="M151.048 119.987V128.923C143.513 136.31 134.703 142.485 124.205 147.056C120.871 148.509 118.522 151.585 118.081 155.197L112.478 200.842C111.872 205.788 106.408 208.507 102.098 206.007L89.3695 198.628C88.9483 198.384 88.5612 198.102 88.2116 197.782C86.2837 196.06 85.4501 193.362 86.153 190.786L96.3225 153.589C98.2296 146.664 101.727 140.283 106.526 134.942L120.433 119.519L128.92 110.107L140.2 113.778L151.048 119.987Z" fill="#DBEDFF"/>
<path d="M151.048 119.986V128.922C143.514 136.309 134.704 142.485 124.205 147.055C120.871 148.508 118.522 151.585 118.081 155.196L112.478 200.842C111.872 205.787 106.408 208.507 102.098 206.006L89.37 198.627C88.9487 198.384 88.5617 198.101 88.212 197.781C88.6499 197.394 89.1459 197.062 89.702 196.801C94.7873 194.397 101.24 198.737 106.278 196.228C108.602 195.071 110.075 192.621 110.651 190.087C111.224 187.557 111.022 184.918 110.757 182.334C110.088 175.881 109.04 169.399 109.633 162.937C110.231 156.476 112.718 149.867 117.845 145.898C121.508 143.061 126.689 141.2 127.805 136.709C128.52 133.817 127.185 130.817 125.506 128.353C123.515 125.433 121.326 122.696 120.434 119.518L128.92 110.106L140.201 113.777L151.048 119.986Z" fill="#C2E0FF"/>
<path d="M183.144 192.37L186.681 199.252L175.972 204.757L172.295 197.605L183.144 192.37Z" fill="#FCBBA4"/>
<path d="M185.4 198.379L171.656 203.435C169.66 204.171 167.502 203.936 165.755 202.913C164.841 202.382 164.041 201.637 163.436 200.707L145.677 173.738C141.572 167.845 138.892 161.081 137.851 153.971L133.689 119.742L132.656 111.252L161.705 113.778C163.073 124.103 162.492 135.325 158.57 148.074C157.487 151.589 158.317 155.411 160.809 158.114L188.11 187.149C191.469 190.79 190.051 196.67 185.4 198.379Z" fill="#DBEDFF"/>
<path d="M185.4 198.379L171.656 203.435C169.66 204.171 167.502 203.936 165.755 202.913C166.832 198.611 171.307 195.26 171.698 190.719C172.026 186.955 169.401 183.55 166.428 181.214C163.456 178.878 159.984 177.152 157.399 174.395C152.879 169.576 151.851 162.365 152.621 155.803C153.391 149.24 155.703 142.964 156.995 136.482C157.82 132.324 157.985 127.386 154.853 124.528C152.605 122.478 149.292 122.15 146.253 122.259C143.214 122.369 140.091 122.807 137.183 121.918C135.882 121.523 134.627 120.744 133.689 119.742L132.656 111.252L161.705 113.778C163.073 124.103 162.492 135.325 158.57 148.074C157.487 151.589 158.317 155.411 160.809 158.114L188.11 187.149C191.469 190.79 190.051 196.67 185.4 198.379Z" fill="#C2E0FF"/>
<path d="M119.793 88.5226C121.393 89.087 123.165 89.5878 125.135 89.9961C125.135 89.9961 122.53 101.719 122.517 109.275C122.508 113.185 123.199 115.98 125.308 115.458C135.557 112.924 161.718 115.458 161.718 115.458C162.589 108.097 163.73 96.1296 162.539 87.163C162.021 83.2658 161.061 79.9363 159.453 77.7981C156.76 74.2077 152.192 72.3717 148.227 71.4292C147.949 71.3623 147.676 71.3032 147.406 71.2441C147.015 71.1638 146.632 71.0879 146.257 71.021C143.016 70.4443 141.981 70.2759 140.558 70.4443C138.588 70.6797 136.689 71.1136 134.888 71.6267C134.615 71.7025 134.345 71.7828 134.079 71.8631C127.607 73.8073 122.475 76.5768 119.793 74.4854C120.871 79.4601 120.719 84.1793 119.793 88.5226Z" fill="#66D3D8"/>
<path d="M123.375 108.774C125.904 107.514 128.859 107.455 131.671 107.76C134.832 108.096 137.938 108.849 141.087 109.279C144.239 109.712 147.509 109.809 150.545 108.862C153.58 107.914 156.371 105.785 157.499 102.809C158.273 100.76 158.214 98.503 158.219 96.3097C158.223 94.2078 158.321 92.0279 159.24 90.1488H162.842C163.485 98.6489 162.495 108.887 161.716 115.458C161.716 115.458 135.555 112.924 125.306 115.458C123.198 115.98 122.507 113.185 122.516 109.274C122.789 109.09 123.079 108.921 123.375 108.774Z" fill="#47B6C3"/>
<path d="M123.286 89.5718V75.1627C121.859 75.3437 120.672 75.1886 119.768 74.4684C119.267 74.0683 118.917 73.4799 118.698 72.7475C116.817 66.5382 123.968 49.933 123.968 49.933C123.968 49.933 127.907 49.6807 127.963 48.3204C128.001 47.3947 125.433 47.2051 125.433 47.2051C125.433 47.2051 128.401 42.2466 127.508 40.6216C127.016 39.7254 126.553 41.4046 125.803 42.718C126.216 41.3541 126.426 40.1969 126.056 39.5272C125.492 38.492 124.873 40.7398 124.086 42.2306C124.38 41.098 124.537 40.2597 124.225 39.6959C123.632 38.6225 122.924 40.9085 122.132 42.4238C122.343 41.4723 122.899 40.9466 122.629 40.4579C121.741 38.833 117.659 46.3299 117.659 46.3299C117.659 46.3299 115.979 48.5223 113.967 51.9408C107.93 62.1853 98.9145 83.4389 123.286 89.5718Z" fill="#FCBBA4"/>
<path d="M123.288 89.5718V75.1637C121.86 75.344 120.674 75.189 119.769 74.4688C119.268 74.0692 118.918 73.48 118.7 72.7472C117.719 72.2419 116.725 72.0271 115.601 72.5749C114.617 73.055 113.944 73.9934 113.139 74.7422C112.335 75.4922 111.216 76.0894 110.138 75.7024C109.131 75.336 108.504 74.1909 108.408 73.1056C108.307 72.0191 108.627 70.9751 108.943 69.9655C110.428 65.2004 111.91 60.4352 113.396 55.67C113.732 54.5973 114.069 53.4901 114.01 52.337C114.002 52.2061 113.99 52.0717 113.969 51.9408C107.932 62.1867 98.9166 83.4387 123.288 89.5718Z" fill="#F2A07C"/>
<path d="M134.888 71.6265C135.069 72.4056 135.397 73.1505 135.865 73.828C136.833 75.2298 138.289 76.1726 139.964 76.4803C140.344 76.5476 140.73 76.5859 141.113 76.5859C144.195 76.5859 146.834 74.3844 147.385 71.3488L147.406 71.2432C147.015 71.1644 146.632 71.0878 146.257 71.0215C143.017 70.4444 141.981 70.2755 140.558 70.4444C138.588 70.6796 136.69 71.1137 134.888 71.6265Z" fill="white"/>
<path d="M134.079 71.8637C134.282 72.7257 134.648 73.5556 135.17 74.3088C136.268 75.8959 137.914 76.961 139.812 77.3101C140.241 77.3858 140.679 77.4282 141.113 77.4282H141.118C144.603 77.4282 147.587 74.9366 148.214 71.5053L148.227 71.4296C147.949 71.3623 147.676 71.3033 147.405 71.2442C147.015 71.1644 146.631 71.0888 146.257 71.0215C143.016 70.4454 141.98 70.2765 140.557 70.4454C138.588 70.6806 136.689 71.1137 134.888 71.6275C134.613 71.7032 134.345 71.7829 134.079 71.8637Z" fill="white"/>
<path d="M149 61.252C146.033 57.8178 147.517 55.0736 147.517 55.0736C146.69 56.2966 145.474 56.5202 143.755 55.4508L145.173 60.5518L149 61.252Z" fill="#73ABFF"/>
<path d="M132.198 50.2146C132.198 50.2146 130.384 52.2199 131.916 54.3677L132.548 50.9193L132.198 50.2146Z" fill="#73ABFF"/>
<path d="M144.833 56.2178C143.077 54.4294 144.314 52.2856 144.314 52.2856L141.76 54.5177L144.452 56.1478L144.833 56.2178Z" fill="#73ABFF"/>
<path d="M146.687 61.139C146.635 61.4208 146.569 61.691 146.494 61.9601L146.536 61.967L144.902 70.8981C144.519 72.9894 142.51 74.3809 140.419 73.9975C139.368 73.8058 138.502 73.2065 137.941 72.3935C137.378 71.5805 137.129 70.5597 137.32 69.5123L137.69 67.4915C137.636 67.4857 137.581 67.4753 137.528 67.4661C135.387 67.0746 133.609 65.8505 132.46 64.1981C131.317 62.5386 130.805 60.4473 131.197 58.3064L132.548 50.9193C133.447 52.3928 135.357 53.6191 137.71 54.0499C139.713 54.4159 141.624 54.1238 142.986 53.3674C142.684 55.5118 145.101 56.6123 146.526 55.9576C146.524 55.9703 146.484 56.0488 146.425 56.1839C146.011 57.0661 144.567 60.2383 145.705 60.4462C146.086 60.5155 146.485 60.4173 146.861 60.1829L146.687 61.139Z" fill="#FCBBA4"/>
<path d="M146.686 61.1392C146.635 61.421 146.568 61.6915 146.493 61.9598L146.535 61.9676L145.814 65.9053C145.704 65.8289 145.601 65.738 145.513 65.6359C145.235 65.3115 145.088 64.895 144.952 64.4887C144.549 63.2562 144.255 61.9867 144.071 60.6992C143.972 60.0224 143.907 59.3264 144.042 58.6574C144.193 57.9278 144.6 57.5529 145.04 56.995C145.402 56.5348 145.828 56.2194 146.425 56.1835C146.011 57.0657 144.566 60.2379 145.705 60.4467C146.086 60.5162 146.484 60.4175 146.861 60.1829L146.686 61.1392Z" fill="#F2A07C"/>
<path d="M144.902 61.643C145.285 61.7123 145.682 61.6188 146.06 61.3786L145.884 62.3359C145.87 62.4133 145.853 62.4883 145.835 62.5657L146.406 62.6685L146.534 61.9664L146.493 61.9594C146.568 61.6904 146.633 61.4201 146.685 61.1384L146.86 60.1822C146.483 60.4166 146.085 60.5148 145.704 60.4455C144.395 60.2065 146.499 56.0504 146.525 55.9569C145.1 56.6116 142.683 55.5111 142.984 53.3667C141.623 54.1231 139.712 54.4153 137.708 54.0492C135.356 53.6185 133.446 52.3921 132.546 50.9186L132.211 52.7535C133.222 53.9395 134.903 54.8795 136.907 55.2455C138.911 55.6128 140.82 55.3241 142.183 54.5688C141.88 56.7121 144.298 57.8092 145.723 57.1544C145.697 57.2525 143.594 61.4028 144.902 61.643Z" fill="#F2A07C"/>
<path d="M144.592 51.8858C144.218 52.5165 143.622 53.0415 142.873 53.4321L144.592 51.8858Z" fill="#FCBBA4"/>
<path d="M144.023 59.9965C144.238 58.8243 145.363 58.0443 146.539 58.2587C147.712 58.4743 148.49 59.602 148.275 60.7742C148.06 61.9486 146.934 62.7286 145.76 62.513" fill="#F2A07C"/>
<path d="M147.736 54.5115C147.615 55.1843 146.994 55.7575 146.525 55.958L147.736 54.5115Z" fill="#FCBBA4"/>
<path d="M125.392 89.8438H113.835C112.981 89.8438 112.209 89.3408 111.86 88.5644L103.332 69.5237L102.331 67.2927C102.018 66.5961 102.528 65.8092 103.291 65.8092H114.847C115.698 65.8092 116.47 66.3122 116.819 67.0885L125.18 85.7506L126.351 88.3613C126.664 89.0568 126.155 89.8438 125.392 89.8438Z" fill="white"/>
<path d="M125.391 89.8438H113.834C112.98 89.8438 112.207 89.3415 111.86 88.5645L103.331 69.5234C103.978 68.9334 105.735 69.6289 106.368 70.3317C107.231 71.2841 107.632 72.5528 108.065 73.761C109.094 76.639 110.422 79.4084 112.025 82.0086C113.131 83.8069 114.512 85.6343 116.525 86.2734C117.73 86.6598 119.038 86.5689 120.286 86.358C121.537 86.1512 122.77 85.8244 124.031 85.7429C124.411 85.7189 124.797 85.7189 125.18 85.7502L126.35 88.3609C126.663 89.0564 126.153 89.8438 125.391 89.8438Z" fill="#E5ECF5"/>
<path d="M113.604 72.4617C114.109 73.7464 113.476 74.7896 112.191 74.7896C110.906 74.7896 109.453 73.7464 108.948 72.4617C108.444 71.177 109.077 70.1339 110.362 70.1339C111.646 70.1339 113.099 71.177 113.604 72.4617Z" fill="#E5ECF5"/>
<path d="M112.222 72.4616C112.427 72.9841 112.169 73.4067 111.648 73.4067C111.125 73.4067 110.535 72.9841 110.33 72.4616C110.125 71.9392 110.382 71.5155 110.904 71.5155C111.427 71.5155 112.017 71.9392 112.222 72.4616Z" fill="white"/>
<path d="M116.416 80.1937C115.532 79.7811 115.133 79.1288 114.602 79.2885C112.977 79.7688 118.218 84.4578 119.144 85.2699C119.233 85.3497 119.282 85.3919 119.282 85.3919C119.282 85.3919 147.784 120.046 162.735 89.067L148.654 86.0109C148.528 87.4419 148.124 88.57 147.232 89.2977C145.935 90.3549 143.595 90.1186 140.885 89.2178C133.78 86.8739 124.144 79.9918 124.144 79.9918C124.144 79.9918 124.734 76.0849 123.416 75.7443C122.519 75.5125 121.792 77.9795 121.792 77.9795C121.792 77.9795 117.574 74.0316 115.797 74.5574C114.812 74.848 116.362 75.6556 117.481 76.6706C116.235 75.9762 115.154 75.5258 114.421 75.7399C113.289 76.0771 115.351 77.1542 116.639 78.2402C115.595 77.7144 114.808 77.3861 114.194 77.5669C113.019 77.9208 115.103 79.0955 116.416 80.1937Z" fill="#FCBBA4"/>
<path d="M119.145 85.2699C119.233 85.3497 119.283 85.3919 119.283 85.3919C119.283 85.3919 147.784 120.046 162.735 89.067L148.655 86.0109C148.529 87.4419 148.125 88.57 147.233 89.2977C145.936 90.3549 143.596 90.1186 140.886 89.2178C140.767 89.6937 140.734 90.1863 140.814 90.6832C141.003 91.8613 141.803 92.9351 141.728 94.1309C141.63 95.6251 140.115 96.7233 138.62 96.8376C137.126 96.9508 135.683 96.3196 134.361 95.6074C130.746 93.6672 127.5 91.0327 124.852 87.8922C123.602 86.4113 122.091 84.6431 120.167 84.8994C119.797 84.9504 119.452 85.0813 119.145 85.2699Z" fill="#F2A07C"/>
<path d="M162.733 89.0652C159.629 95.8596 153.314 102.595 145.12 101.906C146.78 97.9884 147.292 94.0326 145.172 89.9915C147.402 89.885 148.475 88.1323 148.654 86.0091" fill="#66D3D8"/>
<path d="M198.735 21.0133C199.409 31.8614 191.826 41.716 181.166 43.8364C176.563 44.7471 172.064 44.1699 168.124 42.4658L162.432 45.89C162.123 46.0756 161.73 45.8276 161.765 45.465L162.047 42.7109L165.306 40.7502C169.245 42.4557 173.744 43.0329 178.349 42.1221C189.008 40.0018 196.59 30.1457 195.911 19.2991C195.481 12.3494 191.919 6.44382 186.747 2.75286C193.411 6.13927 198.229 12.8599 198.735 21.0133Z" fill="#E5ECF5"/>
<path d="M193.213 20.2693C194.35 29.3119 187.939 37.5667 178.892 38.7038C169.849 39.841 161.594 33.4292 160.457 24.388C159.32 15.3411 165.732 7.09061 174.774 5.95345C183.821 4.8163 192.076 11.2223 193.213 20.2693Z" fill="#F95C44"/>
<path d="M173.826 15.244L175.618 25.2548C175.719 25.8145 176.207 26.2236 176.775 26.2236H178.353C178.921 26.2236 179.409 25.8145 179.508 25.2548L181.301 15.244C181.43 14.5239 180.875 13.8619 180.144 13.8619H174.983C174.251 13.8619 173.698 14.5239 173.826 15.244Z" fill="#E73832"/>
<path d="M175.792 29.7927V28.8208C175.792 28.172 176.319 27.6452 176.967 27.6452H178.161C178.81 27.6452 179.337 28.172 179.337 28.8208V29.7927C179.337 30.4415 178.81 30.9683 178.161 30.9683H176.967C176.319 30.9683 175.792 30.4415 175.792 29.7927Z" fill="#E73832"/>
<path d="M193.211 20.2689C194.348 29.3146 187.939 37.5666 178.887 38.7048C174.03 39.3157 169.396 37.7481 165.981 34.7588C169.021 36.5575 172.661 37.398 176.434 36.9246C185.479 35.7878 191.889 27.5287 190.752 18.4873C190.225 14.2989 188.174 10.6803 185.229 8.11486C189.471 10.6222 192.549 14.9991 193.211 20.2689Z" fill="#FF5533"/>
<path d="M173.097 14.7292L174.89 24.7392C174.989 25.3003 175.477 25.7075 176.046 25.7075H177.623C178.192 25.7075 178.68 25.3003 178.779 24.7392L180.572 14.7292C180.701 14.0088 180.147 13.3467 179.415 13.3467H174.254C173.522 13.3467 172.968 14.0088 173.097 14.7292Z" fill="white"/>
<path d="M175.063 29.2791V28.3074C175.063 27.6584 175.59 27.1316 176.239 27.1316H177.432C178.082 27.1316 178.608 27.6584 178.608 28.3074V29.2791C178.608 29.9281 178.082 30.4536 177.432 30.4536H176.239C175.59 30.4536 175.063 29.9281 175.063 29.2791Z" fill="white"/>
<path d="M63.679 219.675H53.3853C46.3965 210.365 45.6464 198.601 48.4594 197.324C51.9266 195.75 55.1491 207.09 55.1491 207.09C55.1491 207.09 57.3343 190.196 61.1224 191.109C64.911 192.023 60.9221 209.047 60.9221 209.047C60.9221 209.047 64.1043 196.586 68.7356 196.586C73.3668 196.586 65.5534 212.57 65.5534 212.57C65.5534 212.57 68.9566 209.224 70.413 210.841C72.95 213.659 65.9007 218.314 63.679 219.675Z" fill="#DBEDFF"/>
<path d="M67.6394 210.978C66.5656 213.626 65.5559 215.688 65.5559 215.688C65.5559 215.688 68.9105 212.384 70.3842 213.928C71.057 212.821 71.2213 211.74 70.4132 210.839C69.7317 210.081 68.6245 210.414 67.6394 210.978Z" fill="#C2E0FF"/>
<path d="M60.9423 212.077C61.2366 210.97 64.3302 199.702 68.7375 199.702C69.3858 199.702 69.7899 200.017 70.0044 200.556C70.4339 198.274 70.2444 196.587 68.7375 196.587C65.9126 196.587 63.6275 201.213 62.2759 204.828V204.833C61.7796 208.347 61.072 211.513 60.9423 212.077Z" fill="#C2E0FF"/>
<path d="M47.0053 203.591C47.1861 201.929 47.6913 200.788 48.4616 200.438C51.9258 198.868 55.1504 210.208 55.1504 210.208C55.1504 210.208 57.335 193.312 61.1232 194.226C62.0996 194.461 62.5583 195.762 62.7014 197.568C62.8951 194.276 62.6006 191.469 61.1232 191.111C57.335 190.197 55.1504 207.089 55.1504 207.089C55.1504 207.089 51.9258 195.75 48.4616 197.324C47.2703 197.863 46.7191 200.279 47.0053 203.591Z" fill="#C2E0FF"/>
<path d="M56.6118 219.675H42.1194C42.6809 216.072 46.4288 218.12 46.4288 218.12C46.4288 218.12 44.1956 215.287 44.9663 214.441C46.2382 213.045 49.1915 216.104 49.1915 216.104C49.1915 216.104 45.6224 210.544 47.9538 209.236C50.2609 207.941 52.7255 213.888 52.7255 213.888C52.7255 213.888 53.1238 208.015 55.7868 208.761C58.4499 209.508 57.504 215.357 57.504 215.357C57.504 215.357 60.8386 211.89 61.9017 214.253C62.7107 216.051 57.7928 218.999 56.6118 219.675Z" fill="#73ABFF"/>
<path d="M57.6547 215.209C57.6211 216.105 57.5157 216.783 57.5074 216.854C57.6505 216.707 60.5884 213.727 61.7502 215.487C61.9899 215.045 62.07 214.624 61.9016 214.253C60.9717 212.191 58.3154 214.569 57.6547 215.209Z" fill="#73ABFF"/>
<path d="M52.7261 215.394C52.7261 215.394 53.1218 209.518 55.7864 210.263C57.1249 210.637 57.5542 212.308 57.6471 213.87C57.7396 212.085 57.5836 209.265 55.7864 208.76C53.1218 208.015 52.7261 213.887 52.7261 213.887C52.7261 213.887 50.2599 207.94 47.9528 209.236C47.1619 209.682 47.0482 210.617 47.2502 211.661C47.3551 211.269 47.5783 210.949 47.9528 210.739C50.2599 209.446 52.7261 215.394 52.7261 215.394Z" fill="#73ABFF"/>
<path d="M49.186 217.604C49.1524 217.545 48.3775 216.328 47.801 214.918C46.8624 214.249 45.6629 213.676 44.9639 214.442C44.6906 214.741 44.7955 215.288 45.0399 215.869C46.3153 214.695 49.0429 217.456 49.186 217.604Z" fill="#73ABFF"/>
<path d="M0.654396 113.579V39.8962H99.1938V113.579C99.1938 119.185 94.6297 123.749 89.0195 123.749H10.8287C5.21827 123.749 0.654396 119.185 0.654396 113.579ZM10.8287 29.66H89.0195C94.1674 29.66 98.747 33.614 99.168 39.1833V39.2439H0.680438C0.697455 39.1988 2.0252 29.66 10.8287 29.66ZM99.8452 113.579V39.8305C99.8452 33.828 94.9397 29.009 89.0195 29.009H10.8287C5.50731 29.009 0.590195 32.9501 0.0377752 39.0222C-0.0257821 39.6681 0.0122482 34.8555 0.00296602 113.579C0.00296602 119.545 4.8622 124.4 10.8287 124.4H89.0195C94.9861 124.4 99.8452 119.545 99.8452 113.579Z" fill="#18253F"/>
<path d="M42.4084 219.348C42.8847 217.407 44.6159 217.455 46.3257 218.31C46.5349 218.42 46.7431 218.167 46.599 217.985C45.7178 216.869 44.6799 215.075 45.1273 214.585C46.0323 213.613 48.1054 215.319 49.0353 216.252C49.2198 216.446 49.5152 216.198 49.3742 215.987C49.3525 215.948 46.9596 212.196 47.4463 210.264C47.5331 209.908 47.7107 209.647 47.9845 209.469C48.9526 212.648 50.5293 216.1 52.8782 219.348H42.4084ZM53.417 219.348C50.9767 216.048 49.3566 212.527 48.375 209.3C48.5966 209.248 48.8224 209.261 49.0616 209.343C50.8459 209.96 52.5094 213.929 52.527 213.972C52.6179 214.185 52.9237 214.129 52.9433 213.903C52.9433 212.545 53.7197 208.4 55.7272 208.97C58.1764 209.656 57.2992 215.267 57.2905 215.323C57.2516 215.527 57.5152 215.66 57.6593 215.505C58.8748 214.252 60.9913 212.746 61.7021 214.341C62.2626 215.579 59.427 217.781 56.7345 219.348H53.417ZM48.5532 197.518C51.2509 196.287 54.1996 204.335 54.941 207.15C55.0107 207.379 55.3377 207.348 55.3667 207.116C55.7779 203.931 57.9583 190.593 61.073 191.318C64.0082 192.026 61.8065 204.319 60.7122 208.996C60.6504 209.276 61.062 209.376 61.1334 209.1C61.1638 208.979 64.3254 196.802 68.737 196.802C72.454 196.802 66.9755 209.122 65.3585 212.474C65.2557 212.701 65.5446 212.893 65.7062 212.722C66.7828 211.648 69.2272 209.834 70.2527 210.985C72.4571 213.429 66.5932 217.605 63.7953 219.348L57.5901 219.349C59.6786 218.063 62.8355 215.792 62.102 214.164C61.2775 212.353 59.2829 213.446 57.7983 214.776C57.9635 213.213 58.1547 209.2 55.8445 208.553C53.7575 207.959 52.8875 210.932 52.5962 213.078C51.7918 211.41 50.042 208.398 48.2536 208.883C47.4783 206.204 46.1404 198.619 48.5532 197.518ZM91.4267 200.198L101.488 206.03L100.507 208.957L89.7071 205.34L91.4267 200.198ZM89.5334 198.348C86.9365 196.841 85.6771 193.767 86.4675 190.87L96.6376 153.677C98.5221 146.838 102.027 140.433 106.773 135.161L124.264 115.759C124.613 115.881 125.029 115.863 125.385 115.776C127.343 115.29 129.906 114.995 132.763 114.829L135.889 140.532C132.155 142.886 128.229 144.953 124.077 146.755C120.634 148.257 118.211 151.475 117.759 155.158L112.158 200.801C111.577 205.499 106.403 208.111 102.274 205.73L102.265 205.726C102.216 205.697 89.4855 198.32 89.5334 198.348ZM125.081 91.8271C137.463 103.044 151.28 107.499 160.541 93.5901C161.04 92.8968 161.851 91.579 162.535 90.2249C163.119 98.102 162.309 107.429 161.432 115.103C152.937 114.327 133.509 113.095 125.228 115.142C120.497 116.294 124.109 96.5822 125.081 91.8271ZM119.496 85.1485C117.038 83.0252 114.476 80.3157 114.62 79.6468C114.624 79.6379 114.628 79.6202 114.694 79.5981C114.999 79.508 115.447 80.1001 116.283 80.4884C116.43 80.5593 116.604 80.5061 116.695 80.3674C116.782 80.2286 116.752 80.0455 116.626 79.9421C116.313 79.6763 115.957 79.412 115.61 79.1551C115.085 78.7653 114.298 78.1791 114.186 77.9178C114.207 77.9059 114.242 77.8927 114.29 77.8794C114.771 77.7361 115.462 78.0093 116.496 78.5305C116.643 78.6088 116.821 78.5615 116.913 78.4212C117.004 78.2825 116.978 78.1008 116.852 77.9916C116.5 77.6963 116.101 77.4054 115.714 77.1234C115.262 76.7985 114.598 76.3157 114.446 76.0765C115.1 75.7487 116.685 76.5977 117.325 76.955C117.469 77.0318 117.651 76.9934 117.746 76.8591C117.846 76.7232 117.825 76.5372 117.703 76.4249C117.39 76.1459 117.047 75.8816 116.743 75.6424C116.422 75.3958 115.996 75.065 115.853 74.879C116.851 74.5453 119.04 76.1415 119.874 76.7852C120.442 77.2179 121.069 77.7524 121.568 78.2175C121.746 78.3755 122.028 78.3061 122.102 78.0743V78.0698C122.261 77.5324 122.661 76.5357 123.075 76.168C123.281 75.9805 123.46 76.0425 123.613 76.2773C124.057 76.9432 123.959 78.7505 123.878 79.5464V79.5508C123.86 79.6852 123.843 79.8151 123.826 79.9421C123.808 80.0632 123.86 80.1858 123.956 80.2537C128.447 83.511 139.297 90.312 144.869 90.3075C144.905 90.3075 144.939 90.3075 144.97 90.3031C146.693 93.6945 146.675 97.2858 144.913 101.559C131.905 100.489 119.86 85.3286 119.496 85.1485ZM113.834 89.5161C113.113 89.5161 112.453 89.0923 112.158 88.4308L108.936 81.24L107.112 77.1706L102.626 67.1581C102.417 66.6856 102.752 66.1363 103.29 66.1363C108.209 66.1363 106.536 66.1363 114.845 66.1363C115.613 66.1363 116.251 66.6014 116.522 67.2186C116.541 67.2629 120.758 76.6774 120.738 76.6331C120.656 76.5638 120.569 76.4988 120.482 76.4249C119.397 75.5597 117.039 73.8454 115.706 74.2441C115.114 74.4168 114.944 74.8893 115.493 75.4475C115.032 75.3338 114.654 75.3338 114.329 75.4297C114.003 75.5257 113.816 75.6955 113.777 75.9377C113.708 76.3378 114.081 76.7159 114.711 77.1972C114.234 77.1588 113.616 77.3124 113.534 77.7834C113.465 78.1658 113.773 78.535 114.372 79.0252C114.168 79.1256 114.029 79.291 113.986 79.508C113.695 80.8576 117.759 84.5061 119.053 85.6224C120.219 86.9986 121.363 88.2271 122.653 89.5161C118.407 89.5161 116.532 89.5161 113.834 89.5161ZM117.911 46.5306C117.924 46.5173 117.933 46.4996 117.946 46.4833C119.496 43.6336 121.598 40.5505 122.284 40.5505C122.297 40.5505 122.315 40.5505 122.345 40.6125C122.427 40.7602 122.341 40.9595 122.176 41.3331C122.059 41.6062 121.906 41.9444 121.815 42.3534C121.781 42.5143 121.867 42.6753 122.019 42.7314C122.176 42.7875 122.345 42.7181 122.419 42.5749C122.61 42.2102 122.797 41.8071 122.974 41.4158C123.248 40.8163 123.652 39.9259 123.882 39.7606C123.895 39.7783 123.917 39.8093 123.943 39.8521C124.182 40.2906 124.06 41.0245 123.769 42.1452C123.73 42.3061 123.813 42.47 123.969 42.5306C124.121 42.5926 124.295 42.5276 124.373 42.38C124.59 41.9754 124.79 41.5236 124.981 41.085C125.207 40.5727 125.537 39.8211 125.737 39.6217C125.745 39.6395 125.758 39.6616 125.771 39.6823C126.123 40.3261 125.78 41.6668 125.489 42.6221C125.441 42.7831 125.519 42.9529 125.671 43.0178C125.828 43.0828 126.001 43.0223 126.084 42.879C126.292 42.5143 126.479 42.123 126.644 41.7761C126.822 41.4069 127.052 40.9211 127.204 40.7469C127.213 40.7558 127.217 40.7676 127.226 40.7809C127.791 41.81 126.366 44.9639 125.263 46.848C124.613 46.7639 122.801 46.6694 121.78 48.0529C121.673 48.1976 121.703 48.4014 121.848 48.5092C121.906 48.552 121.974 48.5726 122.041 48.5726C122.141 48.5726 122.24 48.5269 122.303 48.4398C123.285 47.1094 125.348 47.5199 125.368 47.5243C125.375 47.5258 125.381 47.5243 125.387 47.5243L125.389 47.5258C125.402 47.5302 125.42 47.5302 125.432 47.5302C126.492 47.6114 127.652 47.9643 127.638 48.3113C127.608 49.0363 125.42 49.5147 123.947 49.6092C123.826 49.618 123.717 49.6919 123.669 49.8056C123.431 50.3652 119.692 59.1286 118.463 66.2367C118.002 65.7627 117.364 65.4807 116.678 65.4807C115.215 65.4822 108.854 65.4851 108.128 65.4851C110.777 55.6631 117.807 46.6561 117.911 46.5306ZM129.701 73.6579C131.031 73.1987 132.398 72.7158 133.853 72.2729C134.576 74.8554 136.763 77.0805 139.759 77.6313C144.016 78.3548 147.651 75.6025 148.478 71.8299C153.442 73.0599 157.046 75.13 159.19 77.9916C160.859 80.2108 161.94 83.8757 162.425 88.9565V88.9609C161.658 90.5423 160.845 91.9795 159.98 93.2647L159.977 93.2735C156.544 98.2312 151.623 101.895 145.599 101.598C147.31 97.3333 147.341 93.7075 145.677 90.2632C146.331 90.1614 146.933 89.9679 147.44 89.5515C148.265 88.8738 148.747 87.8889 148.934 86.4685C148.978 86.1067 149.026 85.9281 148.899 85.7908C148.736 85.5722 148.33 85.711 148.33 85.9827C148.017 89.8277 145.178 89.6209 145.057 89.6903C139.401 89.9251 127.374 81.8306 124.82 80.0632L124.546 79.4475V79.4416C124.668 78.2397 124.75 75.9082 123.613 75.4696V75.443C125.354 75.1743 127.404 74.4611 129.701 73.6579ZM137.105 71.3914C137.55 72.8665 138.762 74.0226 140.358 74.3135C142.521 74.718 144.665 73.3419 145.178 71.1655C145.661 71.2467 147.555 71.5804 147.849 71.6778C147.081 75.1891 143.686 77.6579 139.871 76.989C137.184 76.4929 135.159 74.5084 134.473 72.0868C135.279 71.8565 136.29 71.573 137.105 71.3914ZM137.638 69.5678L137.951 67.8654C139.98 68.2035 140.143 68.2345 140.184 68.2345C140.341 68.2345 140.479 68.1223 140.504 67.9613C140.535 67.7827 140.414 67.6129 140.236 67.5878L137.786 67.1788C137.652 67.1271 134.798 66.9927 132.727 64.0086C131.586 62.3504 131.156 60.3438 131.517 58.3637C133.224 49.0112 131.003 61.1898 132.727 51.7281C133.814 53.0274 135.593 53.9916 137.652 54.3696C139.261 54.6708 141.107 54.5734 142.641 53.9001C142.746 55.5671 144.42 56.6406 145.943 56.453C145.677 57.0481 145.469 57.5782 145.308 58.0433C145.108 58.1127 144.918 58.2116 144.735 58.3386C144.188 58.7166 143.822 59.2851 143.701 59.9362C143.67 60.1134 143.788 60.2832 143.966 60.3142C144.14 60.3482 144.31 60.2315 144.344 60.0529C144.434 59.5523 144.744 59.1138 145.104 58.8761C145.953 58.2884 147.087 58.5128 147.657 59.3412C147.939 59.7458 148.044 60.2316 147.952 60.7129C147.867 61.1824 147.61 61.5782 147.258 61.8469H147.254C146.911 62.1274 146.347 62.2958 145.82 62.1939C145.631 62.1555 145.466 62.2884 145.439 62.4552C145.408 62.6324 145.525 62.8022 145.703 62.8318C145.816 62.8539 145.929 62.8672 146.042 62.8716L144.661 70.4139C144.633 70.4582 144.156 74.3519 140.475 73.6756C138.529 73.3198 137.289 71.4371 137.638 69.5678ZM129.527 51.951C129.727 50.8687 130.318 49.9001 131.19 49.2238C131.307 49.1278 131.347 48.9625 131.282 48.8237C130.935 48.0898 130.826 47.2733 130.973 46.47C131.356 44.3807 133.362 42.9913 135.45 43.3737C136.106 43.4948 136.719 43.7812 137.231 44.2035C137.365 44.3157 137.569 44.2995 137.683 44.1681C139.258 42.3445 141.712 41.4807 144.084 41.9149C147.796 42.5926 150.259 46.1614 149.581 49.8705C149.446 50.6177 149.194 51.3161 148.834 51.954C148.744 52.1031 148.792 52.3201 148.973 52.4058C150.957 53.3877 152.064 55.5981 151.666 57.7819C151.326 59.6409 149.988 61.0688 148.305 61.6254C148.444 61.3862 148.543 61.1175 148.596 60.831C148.717 60.1784 148.574 59.5198 148.196 58.972C147.688 58.2367 146.857 57.8617 146.05 57.9001C146.397 56.9743 146.767 56.2271 146.767 56.2064L146.771 56.202L146.774 56.1961C147.335 55.9097 147.929 55.2895 148.057 54.5675C148.09 54.3903 147.971 54.222 147.794 54.1909C147.618 54.1585 147.447 54.2766 147.416 54.4538C147.325 54.9676 146.817 55.4785 146.397 55.6572L146.396 55.6586H146.393H146.39C145.156 56.2316 143.171 55.2674 143.289 53.5738V53.5619C143.973 53.1559 144.522 52.6435 144.872 52.0514C144.964 51.8964 144.913 51.6971 144.758 51.6055C144.603 51.5139 144.404 51.5642 144.311 51.7192C143.992 52.2596 143.469 52.7321 142.805 53.0953C141.452 53.8366 139.621 54.0669 137.77 53.7258C135.654 53.3405 133.801 52.2463 132.893 50.8569C132.888 50.8495 132.884 50.8421 132.88 50.8362C132.686 50.535 132.537 50.2264 132.441 49.9178C132.388 49.745 132.205 49.6491 132.033 49.7037C131.861 49.7569 131.766 49.9385 131.819 50.1112C131.909 50.4021 132.047 50.6871 132.209 50.9691L132.206 50.9824V50.9868L131.226 56.3275C129.959 55.3707 129.214 53.717 129.527 51.951ZM158.257 147.98C157.141 151.61 158.027 155.579 160.572 158.337L187.872 187.371C191.054 190.819 189.739 196.425 185.29 198.074C183.883 198.591 190.38 196.202 171.545 203.129C168.627 204.202 165.405 203.133 163.707 200.528L145.943 173.553C141.891 167.734 139.202 160.946 138.177 153.933C134.616 124.641 136.59 140.885 133.414 114.795C141.918 114.37 153.142 115.039 161.613 115.772C162.756 126.398 161.653 136.954 158.257 147.98ZM186.244 199.112L176.113 204.319L175.175 202.491C186.155 198.446 185.551 198.687 185.937 198.518L186.244 199.112ZM98.3702 219.348C98.4307 219.253 98.4829 219.144 98.5134 219.027C98.5376 218.935 98.225 220.126 101.028 209.448L102.061 206.36C106.562 208.842 112.172 206.011 112.804 200.88L118.406 155.236C118.828 151.784 121.103 148.761 124.338 147.354C128.424 145.578 132.289 143.546 135.976 141.249L137.531 154.02C138.573 161.138 141.296 168.02 145.404 173.917L163.164 200.884C165.012 203.729 168.538 204.92 171.771 203.741L174.558 202.716L175.666 204.871V204.875L176.896 208.179L172.817 211.506C170.365 213.453 169.916 216.848 171.466 219.322C171.471 219.331 171.48 219.34 171.484 219.348H98.3702ZM197.119 176.01C192.732 177.187 188.23 178.129 183.76 176.653C180.008 175.416 176.531 171.564 177.46 167.491C178.05 164.939 180.19 162.917 180.769 160.256C181.525 156.826 179.449 153.412 177.82 151.146C175.979 148.59 173.835 145.966 173.464 142.891C172.905 138.205 176.487 134.114 179.67 131.079C180.896 129.913 182.096 128.78 183.17 127.631L197.12 152.432V176.01L197.119 176.01ZM187.644 119.471C188.011 116.627 187.13 113.839 186.275 111.147C185.474 108.633 184.847 106.625 184.729 103.692L197.12 119.72V151.103L183.629 127.119L183.63 127.118C185.619 124.899 187.261 122.407 187.644 119.471ZM187.226 93.7033C189.471 90.1806 193.296 87.8934 197.119 87.5936H197.12V118.656L184.716 102.61C184.76 99.3289 185.612 96.2381 187.226 93.7033ZM206.983 93.2859L197.771 106.933V87.5671C201.15 87.3293 205.182 89.5353 206.983 93.2859ZM206.055 103.817C205.386 106.323 205.733 108.537 207.006 109.888C208.72 111.716 211.359 111.554 213.337 112.836C213.798 113.131 214.188 113.491 214.518 113.895L197.771 136.697V108.097L207.288 93.9992C208.825 98.004 206.89 100.613 206.055 103.817ZM215.708 120.796C215.035 123.742 213.334 126.469 212.243 129.307C211.435 131.413 210.375 135.408 212.373 138.509C213.499 140.254 215.327 141.314 216.978 142.572L197.771 163.816V137.798L214.913 114.458V114.46C216.038 116.266 216.181 118.737 215.708 120.796ZM221.414 151.51C221.935 157.933 219.468 164.429 214.818 168.893C210.369 173.158 205.483 173.784 197.771 175.832V164.787L217.489 142.978C217.818 143.251 218.136 143.538 218.427 143.842C220.563 146.082 221.232 149.248 221.414 151.51ZM204.526 189.793C204.315 188.995 203.903 188.351 203.896 187.583C203.841 183.942 205.215 183.895 207.849 182.824C212.402 180.998 213.458 177.037 214.223 175.454C215.55 172.712 217.417 172.277 218.579 172.858C219.964 173.557 220.042 175.607 220.033 176.219C220.002 178.173 219.42 180.271 218.297 182.45C216.959 185.033 215.175 187.297 210.766 193.345C208.299 196.733 205.274 195.198 204.739 193.02C204.521 192.098 204.705 190.782 204.639 190.559L214.874 181.714C215.01 181.596 215.025 181.39 214.908 181.255C214.79 181.118 214.583 181.103 214.449 181.221L204.526 189.796V189.793ZM221.808 219.349H197.694C197.844 219.166 197.739 220.69 197.771 196.496L203.988 191.123C204.005 191.409 203.902 192.336 204.109 193.176C204.73 195.736 208.376 197.713 211.292 193.728C215.844 187.484 217.567 185.274 218.874 182.746C220.047 180.479 220.653 178.286 220.684 176.228C220.698 175.32 220.55 173.123 218.87 172.276C217.381 171.532 215.143 172.065 213.637 175.168C212.856 176.783 211.93 180.492 207.61 182.216C204.77 183.391 203.19 183.564 203.245 187.592C203.252 188.636 203.827 189.367 203.961 190.28V190.284L203.962 190.285L197.771 195.635V176.505C205.142 174.501 210.518 173.917 215.27 169.362C220.06 164.768 222.6 158.076 222.065 151.458C221.787 148.062 220.693 145.275 218.895 143.39C217.039 141.446 214.323 140.329 212.921 138.157C211.079 135.296 212.086 131.531 212.851 129.542C213.978 126.64 215.651 123.972 216.346 120.944C217.064 117.798 216.383 114.029 213.693 112.289C211.728 111.011 208.993 111.051 207.48 109.444C205.898 107.76 206.393 105.063 206.684 103.982C207.568 100.659 209.705 97.7038 207.67 93.2429C207.661 93.2167 207.652 93.1908 207.639 93.1645C203.595 84.4117 191.844 85.2489 186.679 93.3556C184.977 96.0223 184.091 99.2747 184.064 102.722C184.032 106.07 184.736 108.462 185.655 111.346C186.487 113.97 187.347 116.683 186.995 119.389C186.622 122.255 185.011 124.648 183.004 126.849C181.827 128.144 180.469 129.416 179.218 130.605C175.927 133.75 172.222 137.996 172.822 142.969C173.213 146.233 175.395 148.879 177.29 151.523C178.845 153.69 180.834 156.938 180.135 160.117C179.582 162.616 177.436 164.693 176.825 167.347C175.813 171.772 179.531 175.945 183.556 177.274C188.078 178.766 192.56 177.903 197.119 176.683L197.12 176.683C197.153 221.012 197.048 219.166 197.197 219.349H173.529L191.669 209.065C192.196 208.765 192.373 208.096 192.063 207.567L186.966 199.082L186.957 199.073L186.523 198.222C190.665 195.938 191.537 190.378 188.346 186.927L161.049 157.893C158.662 155.305 157.832 151.58 158.879 148.171C162.414 136.693 163.481 125.712 162.139 114.638C164.38 95.1839 163.564 82.7254 159.712 77.6018C156.434 73.2341 150.663 71.4165 145.303 70.5232L146.715 62.8067C146.992 62.7461 147.258 62.628 147.493 62.4759C149.854 62.1644 151.856 60.3659 152.304 57.9001C152.733 55.542 151.613 53.1573 149.559 51.9805C149.872 51.3604 150.093 50.6959 150.223 49.9872C150.966 45.9267 148.265 42.0182 144.2 41.2726C141.703 40.8163 139.124 41.6712 137.396 43.5125C136.853 43.1212 136.227 42.8569 135.568 42.7358C133.128 42.2884 130.778 43.9126 130.331 46.3534C130.174 47.2083 130.266 48.0721 130.591 48.8709C129.701 49.6358 129.102 50.6782 128.889 51.8329C128.501 53.9429 129.47 55.9525 131.096 57.0348L130.874 58.2471C130.483 60.3969 130.951 62.5763 132.193 64.3821C133.41 66.1363 135.224 67.3308 137.309 67.7576C137.077 69.2504 136.832 69.7819 136.971 70.7491C134.389 71.3544 132.007 72.1548 129.488 73.0451C126.928 73.9384 124.626 74.7682 122.519 74.8997H122.505L118.971 67.006C120.022 60.3482 123.622 51.6114 124.19 50.2441C125.202 50.1614 128.229 49.7923 128.29 48.3379C128.329 47.3988 126.831 47.0562 125.967 46.9352C126.714 45.6151 128.616 41.9621 127.795 40.4649C127.638 40.1784 127.434 40.0381 127.208 40.0441C126.957 40.0514 126.766 40.2213 126.575 40.5121C126.583 40.0381 126.51 39.6705 126.344 39.3707C126.179 39.0754 125.971 38.9322 125.728 38.9396C125.324 38.9573 125.037 39.4003 124.698 40.1208C124.668 39.9082 124.612 39.7177 124.512 39.5391C124.304 39.1581 124.047 39.0872 123.873 39.0917C123.487 39.1094 123.192 39.4874 122.84 40.1784C122.696 39.9997 122.505 39.8994 122.284 39.8994C120.903 39.9038 118.202 44.6509 117.386 46.1496C116.821 46.8643 109.96 55.728 107.411 65.4851H103.29C102.293 65.4851 101.621 66.5158 102.035 67.4268L111.562 88.6966C111.966 89.5899 112.857 90.1688 113.834 90.1688H123.313C123.696 90.5379 124.1 90.9233 124.521 91.3146C123.642 95.5701 120.311 112.686 123.674 115.437L106.286 134.722C101.475 140.072 97.923 146.564 96.0079 153.503L85.8378 190.701C84.9694 193.88 86.3544 197.258 89.2074 198.913L90.8533 199.868L88.9994 205.405L87.4835 208.592L82.2593 207.997C80.196 207.764 78.3673 208.523 77.1183 209.873C76.441 210.607 75.9584 211.51 75.7157 212.491C75.5809 213.056 75.915 213.625 76.4709 213.79L95.6344 219.348L64.6074 219.349C67.616 217.405 72.9752 213.371 70.5781 210.694C69.4706 209.472 67.4843 210.682 66.201 211.71C67.9931 207.865 72.987 196.368 68.737 196.368C65.7191 196.368 63.348 201.262 61.9889 204.957C62.9398 199.747 63.9648 191.569 61.1768 190.896C57.6552 190.06 55.6042 202.504 55.0716 206.091C54.072 202.955 51.3786 195.758 48.3709 197.123C45.6465 198.37 46.9581 205.954 47.8544 209.039L47.8497 209.044C46.0443 210.057 47.3518 213.209 48.3276 215.041C47.2701 214.202 45.7199 213.303 44.806 214.294C44.1587 215.006 45.1139 216.643 45.7786 217.603C43.8885 216.937 42.3832 217.413 41.9616 219.348L38.3687 219.349C14.6665 219.082 11 219.361 11 219.541C11 219.721 38.3687 220 38.3687 220H221.808C221.987 220 222.133 219.854 222.133 219.674C222.133 219.494 221.987 219.349 221.808 219.349Z" fill="#18253F"/>
<path d="M146.632 61C146.641 61 146.649 61.0044 146.663 61.0044C146.828 61.0044 146.971 60.8744 146.983 60.7058C147.001 60.5273 146.866 60.3665 146.689 60.3532C146.502 60.3378 146.306 60.1681 146.328 59.9235C146.341 59.7406 146.211 59.5853 146.028 59.5677C145.855 59.5544 145.694 59.6844 145.676 59.8629C145.639 60.4965 146.079 60.9416 146.632 61Z" fill="#18253F"/>
<path d="M135.207 60.4321C135.359 60.4321 135.498 60.3228 135.524 60.1621C135.558 59.9881 135.441 59.8196 135.263 59.785C134.909 59.7337 134.837 59.7225 134.769 59.7114C134.92 59.3197 135.342 58.4996 135.733 57.8134C135.818 57.6561 135.763 57.4519 135.611 57.366C135.455 57.279 135.255 57.3348 135.163 57.4921C134.288 59.0954 133.797 59.9267 134.23 60.2101C134.419 60.3384 135.152 60.4321 135.207 60.4321Z" fill="#18253F"/>
<path d="M137.534 56.1244C137.363 56.228 137.347 56.4621 137.429 56.5713C137.528 56.7233 137.729 56.7717 137.881 56.676C138.224 56.4576 138.697 56.2978 139.335 56.9664C139.465 57.0959 139.671 57.1004 139.795 56.9754C139.926 56.8494 139.931 56.6456 139.809 56.515C139.045 55.717 138.233 55.6652 137.534 56.1244Z" fill="#18253F"/>
<path d="M132.81 55.7582C133.153 55.542 133.626 55.3813 134.269 56.0491C134.377 56.1713 134.588 56.1906 134.73 56.0582C134.855 55.937 134.864 55.7288 134.739 55.5986C133.836 54.6558 133.001 54.8686 132.463 55.207C132.311 55.3021 132.268 55.5069 132.363 55.6586C132.458 55.8114 132.658 55.8544 132.81 55.7582Z" fill="#18253F"/>
<path d="M138.475 57.6429C138.393 57.4511 138.145 57.382 137.976 57.5136L137.025 58.2518C136.881 58.3644 136.855 58.5685 136.968 58.7079C137.076 58.8506 137.28 58.8774 137.424 58.7681L138.041 58.2864L138.302 58.8897C138.381 59.0759 138.608 59.1249 138.727 59.0592C138.892 58.99 138.97 58.7982 138.901 58.6332L138.475 57.6429Z" fill="#18253F"/>
<path d="M133.443 57.0274C133.36 56.8339 133.107 56.7645 132.942 56.901C132.846 56.9748 132.23 57.4515 131.993 57.635C131.848 57.748 131.822 57.9517 131.935 58.0949C132.044 58.2347 132.249 58.2605 132.392 58.1519C132.436 58.1173 133.052 57.635 133.008 57.6697C133.028 57.7144 133.288 58.3175 133.269 58.2739C133.342 58.4507 133.548 58.5178 133.699 58.4429C133.863 58.3735 133.937 58.1821 133.868 58.0177C133.849 57.9729 133.424 56.9827 133.443 57.0274Z" fill="#18253F"/>
<path d="M112.191 74.4624C111.049 74.4624 109.703 73.4931 109.251 72.342C108.837 71.2865 109.294 70.4585 110.363 70.4585C111.5 70.4585 112.847 71.4309 113.299 72.582C113.705 73.597 113.285 74.4624 112.191 74.4624ZM113.907 72.342C113.351 70.9228 111.791 69.8071 110.363 69.8071C108.828 69.8071 108.066 71.0995 108.644 72.582C109.203 74.0021 110.763 75.1138 112.191 75.1138C113.738 75.1138 114.484 73.8048 113.907 72.342Z" fill="#18253F"/>
<path d="M134.304 62.6807C134.208 62.832 134.256 63.0323 134.407 63.128C134.57 63.2227 134.763 63.1694 134.855 63.0192C135.158 62.5207 135.526 62.5915 135.88 63.0497C135.988 63.189 136.192 63.2151 136.336 63.1063C136.478 62.9974 136.505 62.7939 136.396 62.6502C135.818 61.8775 134.872 61.7392 134.304 62.6807Z" fill="#18253F"/>
<path d="M172.718 1.11274C201.08 -4.30776 208.665 38.0348 181.103 43.5122C176.735 44.3809 172.291 43.9166 168.253 42.1672C168.159 42.1237 168.045 42.1312 167.958 42.1881L162.265 45.6061C162.195 45.6525 162.079 45.6031 162.087 45.4968L162.765 38.914C162.777 38.8061 162.734 38.7058 162.656 38.6324C158.28 34.837 155.66 29.5423 155.271 23.7324C154.549 12.8899 162.048 3.16621 172.718 1.11274ZM162.1 39.0143L161.44 45.4278C161.372 46.0779 162.078 46.4823 162.599 46.1663L168.15 42.8307C172.27 44.5816 176.786 45.0369 181.229 44.1517C210.13 38.4197 201.041 -4.99224 172.591 0.474689C161.602 2.58957 153.876 12.6068 154.622 23.7758C155.017 29.7041 157.671 35.1096 162.1 39.0143Z" fill="#18253F"/>
<path d="M174.815 6.27774C183.574 5.16915 191.762 11.3312 192.889 20.3123C194.003 29.1869 187.726 37.2667 178.85 38.3811C170.074 39.4998 161.903 33.2542 160.78 24.3465C159.669 15.4964 165.966 7.38923 174.815 6.27774ZM178.932 39.029C188.259 37.857 194.702 29.3323 193.536 20.2303C192.377 11.0001 183.971 4.47087 174.733 5.62986C165.527 6.78885 158.979 15.2229 160.134 24.4286C161.306 33.7538 169.873 40.1966 178.932 39.029Z" fill="#18253F"/>
<path d="M27.5659 80.1224C27.5659 91.8764 37.1005 101.41 48.8627 101.41C60.626 101.41 70.151 91.8764 70.151 80.1224C70.151 68.3586 60.626 58.8248 48.8627 58.8248C37.1005 58.8248 27.5659 68.3586 27.5659 80.1224Z" fill="white"/>
<path d="M40.0807 83.5033C38.5916 84.9912 38.6002 87.4058 40.0807 88.8865C41.5839 90.3887 44.0039 90.3625 45.4734 88.8937L48.8658 85.5023L52.2495 88.8937C53.7288 90.3744 56.1436 90.384 57.6327 88.8937C59.1326 87.3938 59.113 84.9745 57.6413 83.5033L54.249 80.1191L57.6327 76.7349C59.1218 75.247 59.1218 72.8228 57.6327 71.3326C56.1556 69.8566 53.7527 69.847 52.2397 71.3421L48.856 74.7263L45.4734 71.3326C43.9843 69.8446 41.5698 69.8542 40.0807 71.3421C38.5882 72.8348 38.5992 75.2446 40.0807 76.7277L43.473 80.1095L40.0807 83.5033Z" fill="#FF8870"/>
<path d="M40.079 83.5017C38.5899 84.9922 38.5987 87.4047 40.079 88.8859C41.5822 90.3879 44.0023 90.3625 45.4717 88.8951L48.8643 85.5029L52.2478 88.8951C53.7271 90.3741 56.142 90.3833 57.6308 88.8951C60.4285 86.0991 56.5972 89.1563 54.0883 86.649L50.7058 83.2544L47.3135 86.649C46.5726 87.3885 45.5952 87.7582 44.6165 87.7582C43.6388 87.7582 42.6602 87.3793 41.9207 86.6398C40.8013 85.5214 40.5192 83.8552 41.1096 82.4711L40.079 83.5017Z" fill="#F95C44"/>
<path d="M43.2709 79.9082L45.3147 77.8634L41.9225 74.4793C41.1816 73.7405 40.8119 72.7609 40.8031 71.7838C40.8031 71.4049 40.8648 71.0355 40.9709 70.6733C40.6539 70.8496 40.3543 71.0713 40.0807 71.3429C38.5884 72.8372 38.5993 75.2443 40.0807 76.7266L43.2709 79.9082Z" fill="#F95C44"/>
<path d="M27.5671 80.1179C27.5671 91.8724 37.1007 101.407 48.8639 101.407C56.5731 101.407 63.323 97.3091 67.0592 91.185C63.2615 94.7626 58.1421 96.9388 52.5113 96.9388C40.7481 96.9388 31.2148 87.4064 31.2148 75.6519C31.2148 71.5901 32.3512 67.8018 34.3161 64.5751C30.1572 68.453 27.5671 73.9865 27.5671 80.1179Z" fill="#BFD2E5"/>
<path d="M57.1486 88.4089C55.9308 89.627 53.9486 89.6366 52.7311 88.4185L49.3495 85.018C49.0824 84.7524 48.6435 84.7524 48.3762 85.018L44.9863 88.4089C43.813 89.5815 41.7497 89.5911 40.5589 88.3994C39.3899 87.2483 39.2971 85.2454 40.5589 83.9818L43.7319 80.8111C44.0281 80.4425 44.4012 80.0788 43.9491 79.6289L40.5589 76.2476C39.3024 74.9721 39.3804 73.0074 40.5589 71.8276C41.7571 70.612 43.7393 70.5737 44.9863 71.8205L48.3676 75.209C48.623 75.4674 49.0436 75.489 49.3399 75.209L52.7126 71.8276C53.9216 70.6383 55.9763 70.6479 57.1486 71.8205C58.376 73.0385 58.376 75.0295 57.1486 76.2547L53.767 79.6385C53.5021 79.9017 53.4987 80.3325 53.767 80.6005L57.1572 83.9818C58.3477 85.1903 58.3954 87.1622 57.1486 88.4089ZM55.2129 80.1195L58.112 77.2191C59.8661 75.465 59.8661 72.6102 58.112 70.8561C56.3527 69.0972 53.5258 69.0972 51.7578 70.8656L48.8587 73.766L45.9497 70.8561C44.1848 69.0733 41.3204 69.1211 39.5955 70.8656C37.8589 72.603 37.8285 75.4435 39.5955 77.2096L42.5045 80.1099L39.5955 83.0198C37.7799 84.8529 37.9139 87.691 39.5955 89.3733C41.3831 91.1418 44.1947 91.1179 45.9497 89.3829C46.0406 89.292 49.0501 86.272 48.8587 86.4634L51.7676 89.3829C53.5227 91.137 56.3776 91.1179 58.112 89.3829C59.8932 87.6001 59.8465 84.7452 58.1218 83.0198L55.2129 80.1195Z" fill="#18253F"/>
<path d="M70.9075 79.669C70.9075 91.5368 61.2867 101.157 49.419 101.157C37.5512 101.157 27.9305 91.5368 27.9305 79.669C27.9305 67.8012 37.5512 58.1805 49.419 58.1805C61.2867 58.1805 70.9075 67.8012 70.9075 79.669Z" stroke="#18253F" stroke-width="0.860985"/>
</svg>
